 <svg  version="1.0" xmlns="http://www.w3.org/2000/svg"  width="300.000000pt" height="300.000000pt" viewBox="0 0 300.000000 300.000000"  preserveAspectRatio="xMidYMid meet">  <g transform="translate(0.000000,300.000000) scale(0.100000,-0.100000)" fill="#ffffff" stroke="none"> <path d="M10 1500 l0 -1490 1490 0 c1412 0 1490 1 1490 18 0 12 -3 13 -8 4 -7 -10 -310 -12 -1483 -10 l-1474 3 -3 1455 c-1 800 0 1465 3 1477 3 12 15 23 28 26 16 3 13 5 -10 6 l-33 1 0 -1490z"/> <path d="M82 2985 c3 -3 652 -5 1443 -5 1054 0 1441 -3 1451 -11 11 -9 14 -8 14 5 0 15 -120 16 -1457 16 -801 0 -1454 -2 -1451 -5z"/> <path d="M1674 2521 c4 -6 1 -11 -7 -11 -24 0 -74 -54 -83 -90 -9 -42 -9 -57 0 -90 4 -14 2 -39 -5 -55 -12 -30 -16 -52 -23 -115 -2 -19 -4 -36 -5 -36 -1 -1 -20 16 -43 37 -69 62 -141 63 -202 3 -40 -41 -48 -69 -40 -141 3 -36 2 -63 -3 -63 -5 0 -9 -8 -10 -17 -2 -48 -17 -119 -27 -129 -8 -8 -16 -4 -29 18 -10 17 -21 28 -24 25 -3 -4 -12 0 -20 8 -9 9 -34 15 -66 15 -43 0 -59 -5 -88 -30 -44 -36 -67 -103 -52 -153 7 -25 5 -42 -9 -75 -14 -34 -18 -70 -18 -167 0 -77 -4 -126 -11 -130 -6 -4 -70 -9 -142 -10 -81 -2 -133 -8 -135 -14 -2 -6 -11 -11 -21 -11 -26 0 -89 -58 -112 -102 -23 -44 -24 -131 -4 -182 16 -38 83 -105 109 -110 12 -2 45 -9 74 -15 70 -14 326 -14 371 0 72 23 118 55 200 138 47 48 98 96 115 109 16 12 26 22 21 22 -4 0 5 12 21 27 16 15 31 27 34 27 3 0 15 10 27 23 12 12 20 23 18 23 -3 0 40 45 95 100 55 55 105 100 111 100 5 0 8 4 5 9 -7 10 43 45 52 37 6 -7 12 -29 15 -57 1 -10 -54 -75 -122 -147 -130 -136 -147 -167 -114 -204 11 -12 28 -18 52 -16 30 2 49 16 123 92 49 49 88 94 88 98 0 5 4 6 10 3 5 -3 19 9 30 27 11 18 20 29 20 24 0 -5 6 -3 14 3 10 8 21 9 41 1 25 -9 32 -7 57 17 25 24 28 34 28 87 0 46 -5 68 -22 93 -13 18 -28 31 -35 29 -6 -3 -13 -2 -16 1 -9 9 -97 13 -97 5 0 -4 -10 -8 -21 -9 -21 -2 -21 -1 -3 13 11 9 12 12 4 8 -8 -4 -3 5 13 19 15 15 30 26 33 26 3 0 17 15 32 33 38 47 182 190 182 181 0 -5 5 -1 10 7 7 12 37 15 153 16 100 1 150 5 167 15 14 7 29 12 33 11 5 -1 6 2 2 8 -3 5 0 10 9 10 17 0 66 56 66 76 0 9 4 13 9 10 13 -8 20 56 9 77 -6 11 -5 17 2 17 7 0 8 6 1 19 -6 10 -8 21 -4 24 8 8 -45 97 -58 97 -6 0 -7 5 -4 10 3 6 -1 10 -9 10 -8 0 -19 6 -23 14 -4 7 -24 17 -43 21 -39 9 -401 13 -467 5 -23 -3 -41 -3 -41 0 1 3 -4 14 -10 26 -6 12 -7 25 -2 30 12 13 19 67 10 79 -5 6 -10 21 -12 34 -5 41 -68 82 -133 88 -41 4 -55 2 -51 -6z m134 -64 c31 -31 39 -86 18 -127 -15 -30 -14 -34 4 -58 11 -13 20 -35 20 -48 0 -29 0 -29 47 -1 36 21 48 22 248 22 234 0 244 -2 303 -69 75 -85 46 -222 -58 -277 -29 -16 -58 -19 -180 -19 l-145 0 -470 -470 c-322 -321 -482 -474 -507 -485 -29 -12 -79 -15 -233 -15 -243 0 -280 11 -326 102 -40 79 -11 186 64 236 39 26 48 27 201 32 l161 5 1 152 c1 135 4 156 22 187 19 32 20 38 7 63 -19 36 -19 57 1 99 20 41 59 64 110 64 28 0 44 -8 70 -34 42 -42 48 -95 18 -141 -13 -19 -12 -24 5 -39 11 -10 23 -31 26 -48 l7 -30 23 22 c23 21 24 30 27 180 3 147 5 161 26 189 21 29 22 33 7 53 -29 43 -11 119 37 152 12 9 42 16 66 16 37 0 50 -6 78 -34 27 -27 34 -42 34 -73 0 -21 -7 -49 -15 -61 -15 -20 -14 -24 4 -43 11 -12 23 -35 26 -51 l7 -30 24 23 c23 22 24 27 24 170 0 150 5 183 35 212 15 15 15 19 1 39 -25 35 -20 91 10 127 45 54 122 58 172 8z m142 -956 c5 -11 10 -47 10 -80 0 -51 -3 -62 -21 -71 -25 -14 -49 2 -49 34 -1 16 -40 -20 -155 -139 -134 -139 -156 -159 -172 -149 -40 25 -28 44 127 199 132 132 150 154 130 157 -32 4 -48 32 -31 52 10 12 32 16 82 16 57 0 70 -3 79 -19z"/> <path d="M1698 2418 c-24 -20 -28 -44 -12 -67 17 -23 53 -28 72 -9 19 19 15 66 -7 78 -25 13 -34 13 -53 -2z"/> <path d="M1677 2242 c-14 -15 -17 -41 -17 -132 l0 -114 65 64 c61 61 65 67 65 110 0 60 -21 90 -64 90 -19 0 -40 -8 -49 -18z m71 -69 c2 -33 -1 -44 -19 -57 -13 -8 -24 -14 -26 -12 -5 5 -12 99 -8 106 2 4 14 6 27 5 19 -1 23 -8 26 -42z"/> <path d="M1940 2169 c-14 -5 -239 -223 -500 -484 l-475 -474 -163 -3 -164 -3 -29 -33 c-23 -26 -29 -42 -29 -78 0 -39 5 -51 34 -80 l34 -34 208 0 209 0 480 480 480 480 136 0 c167 0 192 5 230 42 24 24 29 38 29 77 0 26 -7 56 -16 69 -32 46 -60 52 -256 51 -101 0 -194 -5 -208 -10z m398 -33 c25 -10 49 -51 47 -76 -1 -8 -3 -22 -3 -31 -4 -34 -63 -49 -189 -49 -65 0 -135 -5 -155 -10 -29 -8 -125 -99 -490 -464 -288 -289 -469 -462 -496 -476 -43 -23 -89 -24 -394 -9 -26 1 -47 65 -35 105 6 18 13 31 17 29 4 -3 13 1 19 9 8 10 47 14 153 14 116 1 148 4 175 19 18 10 33 21 33 26 0 4 5 5 10 2 6 -3 10 -2 10 3 0 9 75 86 206 214 38 37 86 85 107 107 20 23 39 41 42 41 3 0 14 9 25 20 11 11 18 20 15 20 -3 0 31 35 76 78 45 42 102 99 128 126 100 106 160 164 175 169 9 4 15 10 14 14 -4 11 96 103 111 103 6 0 11 4 11 9 0 5 10 12 23 14 42 9 342 4 365 -7z"/> <path d="M1378 2099 c-21 -12 -24 -59 -6 -77 19 -19 55 -14 72 10 20 29 20 34 -4 58 -22 22 -37 24 -62 9z"/> <path d="M1360 1920 c-18 -18 -20 -33 -20 -132 l0 -112 65 64 c63 63 65 66 65 116 0 37 -5 56 -18 67 -25 23 -68 21 -92 -3z m66 -32 c17 -27 14 -67 -6 -81 -11 -8 -17 -17 -13 -20 3 -4 -1 -7 -10 -7 -12 0 -17 9 -17 29 0 16 -3 36 -6 44 -5 14 20 47 36 47 5 0 12 -5 16 -12z"/> <path d="M1060 1773 c-25 -17 -24 -60 1 -76 23 -14 67 -1 74 23 14 45 -36 80 -75 53z"/> <path d="M1041 1594 c-18 -23 -21 -41 -21 -133 l0 -106 67 67 c65 66 67 68 64 115 -1 26 -9 56 -18 65 -24 27 -68 23 -92 -8z m79 -54 c0 -25 -36 -80 -53 -80 -8 0 -10 104 -2 112 3 3 17 3 30 0 19 -3 25 -11 25 -32z"/> <path d="M670 802 c0 -4 -13 -13 -30 -19 -38 -14 -38 -28 1 -107 29 -60 30 -66 16 -93 -8 -15 -22 -43 -31 -60 -23 -43 -17 -74 16 -92 26 -15 28 -14 77 27 47 40 69 53 57 34 -3 -5 8 -23 25 -40 25 -26 37 -30 67 -27 20 2 36 8 34 14 -3 14 21 14 34 1 5 -5 25 -12 42 -14 18 -2 31 -1 28 2 -3 2 4 16 14 30 11 13 20 35 20 48 0 34 14 30 28 -8 18 -49 25 -58 60 -67 25 -7 35 -5 53 10 22 19 39 17 39 -5 0 -8 12 -11 35 -8 39 5 86 54 64 68 -14 8 39 53 64 54 47 1 97 65 97 125 0 49 -55 114 -99 117 -142 8 -143 8 -173 -24 l-29 -31 -19 21 c-11 12 -37 25 -58 30 -47 12 -141 8 -168 -6 -12 -7 -26 -7 -35 -1 -40 25 -106 3 -120 -40 -3 -7 -18 0 -39 18 -19 17 -41 30 -48 31 -7 0 -10 5 -7 10 3 6 1 10 -4 10 -6 0 -11 -4 -11 -8z m59 -93 l33 -61 33 59 c27 49 36 58 63 61 18 2 32 0 31 -5 0 -4 -19 -39 -43 -78 l-42 -70 43 -73 c24 -40 43 -76 43 -80 0 -5 -15 -6 -32 -4 -29 3 -37 11 -63 63 -16 32 -32 59 -35 59 -3 0 -18 -26 -35 -57 -25 -48 -36 -59 -62 -64 -18 -4 -33 -3 -33 2 0 5 19 39 42 76 22 38 41 73 41 78 0 6 -18 41 -41 79 -23 37 -42 70 -42 72 0 2 15 4 33 4 29 0 35 -6 66 -61z m406 31 c16 -15 25 -34 25 -54 0 -37 -7 -49 -38 -65 -21 -11 -22 -14 -8 -24 16 -12 67 -132 60 -140 -3 -2 -18 -2 -35 2 -26 5 -33 14 -49 60 -19 57 -32 71 -67 71 -22 0 -23 -4 -23 -65 l0 -65 -30 0 -30 0 0 156 0 157 85 -5 c72 -4 89 -8 110 -28z m246 20 c43 -12 69 -46 69 -90 0 -63 -45 -100 -120 -100 l-40 0 0 -55 0 -55 -32 0 -33 0 2 152 c1 84 3 154 3 156 1 7 120 1 151 -8z m-480 -117 c2 -49 -2 -87 -8 -93 -11 -11 -33 36 -33 70 0 62 39 84 41 23z"/> <path d="M1000 675 c0 -44 1 -45 31 -45 43 0 69 17 69 45 0 28 -26 45 -69 45 -30 0 -31 -1 -31 -45z"/> <path d="M1290 671 l0 -51 34 0 c37 0 66 21 66 48 0 30 -16 43 -59 49 l-41 6 0 -52z"/> <path d="M1613 787 c-35 -16 -46 -66 -41 -199 6 -151 12 -159 122 -166 55 -3 82 0 106 12 26 13 36 13 53 3 26 -15 66 -16 68 -2 1 6 10 16 21 24 17 12 23 10 46 -12 15 -13 35 -24 44 -24 27 1 60 42 62 77 2 35 19 50 57 50 29 0 67 38 63 63 -3 20 -28 47 -43 47 -22 0 -10 18 14 22 14 3 22 1 18 -5 -3 -5 2 -5 13 1 14 8 23 7 36 -5 14 -12 16 -28 11 -103 -6 -86 -5 -88 21 -111 41 -36 67 -39 93 -10 21 21 23 34 23 122 0 88 2 99 20 109 11 6 20 8 20 4 0 -4 9 1 20 11 11 10 20 31 20 47 0 24 -6 32 -35 44 -41 17 -235 20 -235 4 0 -7 -6 -7 -17 -2 -10 5 -49 10 -87 11 -52 1 -78 -3 -113 -20 l-44 -21 -24 22 c-25 24 -55 21 -87 -8 -15 -12 -18 -33 -18 -116 0 -104 -8 -135 -30 -121 -7 4 -26 8 -41 7 -19 0 -29 4 -29 14 0 8 -4 14 -9 14 -5 0 -9 38 -9 86 0 115 -30 158 -89 131z m57 -147 l0 -130 70 0 c68 0 70 -1 70 -25 0 -25 0 -25 -100 -25 l-100 0 0 155 0 155 30 0 30 0 0 -130z m250 -25 l0 -155 -30 0 -30 0 0 155 0 155 30 0 30 0 0 -155z m270 124 l0 -31 -65 4 -65 3 0 -43 0 -44 60 4 c60 3 60 3 60 -24 0 -27 -1 -28 -60 -28 l-60 0 0 -60 c0 -60 0 -60 -30 -60 l-30 0 0 155 0 155 95 0 95 0 0 -31z m260 1 c0 -29 -2 -30 -46 -30 l-46 0 4 -125 3 -125 -32 0 -33 0 0 128 0 127 -45 -3 c-42 -4 -45 -2 -45 20 0 14 3 28 7 31 3 4 57 7 120 7 l113 0 0 -30z"/> </g> </svg> 